<svg height="512" viewBox="0 0 64 64" width="512" xmlns="http://www.w3.org/2000/svg" xmlns:xlink="http://www.w3.org/1999/xlink"><linearGradient id="linear-gradient" gradientUnits="userSpaceOnUse" x1="-2.76" x2="54.793" y1="-23.981" y2="59.902"><stop offset="0" stop-color="#fff"/><stop offset="1" stop-color="#679fe4"/></linearGradient><linearGradient id="linear-gradient-2" x1="-9.048" x2="26.952" xlink:href="#linear-gradient" y1="-15.852" y2="29.585"/><g id="Gear"><path d="m63.074 46.412-3.649-1.512a16.306 16.306 0 0 0 -.031-2.539l3.68-1.524a1.5 1.5 0 0 0 .811-1.96l-2.577-6.223a1.5 1.5 0 0 0 -1.96-.812l-3.68 1.524a16.263 16.263 0 0 0 -1.768-1.815l1.506-3.651a1.5 1.5 0 0 0 -.811-1.96l-6.223-2.578a1.5 1.5 0 0 0 -1.96.812l-1.421 3.43a16.084 16.084 0 0 0 -2.766-.082l-1.387-3.348a1.5 1.5 0 0 0 -1.96-.812l-6.223 2.578a1.5 1.5 0 0 0 -.812 1.96l1.257 3.041a16.15 16.15 0 0 0 -2.251 2.124l-2.949-1.222a1.5 1.5 0 0 0 -1.96.812l-2.578 6.223a1.5 1.5 0 0 0 .812 1.96l2.731 1.131a16.236 16.236 0 0 0 -.04 3.328l-2.691 1.115a1.5 1.5 0 0 0 -.812 1.96l2.58 6.228a1.5 1.5 0 0 0 1.96.811l2.691-1.114a16.105 16.105 0 0 0 2.382 2.324l-1.132 2.732a1.5 1.5 0 0 0 .812 1.96l6.223 2.577a1.5 1.5 0 0 0 1.96-.811l1.222-2.95a16.228 16.228 0 0 0 3.093-.09l1.259 3.04a1.5 1.5 0 0 0 1.96.811l6.228-2.582a1.5 1.5 0 0 0 .811-1.96l-1.391-3.348a16.3 16.3 0 0 0 1.9-2.015l3.43 1.421a1.5 1.5 0 0 0 1.96-.811l2.577-6.223a1.5 1.5 0 0 0 -.813-1.96zm-15.918 5.737a9.227 9.227 0 1 1 4.993-12.056 9.237 9.237 0 0 1 -4.993 12.056z" fill="url(#linear-gradient)"/><path d="m32.312 12.68h-3.012a13.259 13.259 0 0 0 -.625-1.563l2.113-2.117a1.5 1.5 0 0 0 0-2.121l-3.855-3.855a1.5 1.5 0 0 0 -2.121 0l-1.974 1.976a13.438 13.438 0 0 0 -1.706-.765v-2.735a1.5 1.5 0 0 0 -1.5-1.5h-5.452a1.5 1.5 0 0 0 -1.5 1.5v2.446a13.489 13.489 0 0 0 -2 .761l-1.68-1.683a1.5 1.5 0 0 0 -2.122 0l-3.854 3.855a1.5 1.5 0 0 0 0 2.121l1.541 1.541a13.409 13.409 0 0 0 -.916 2.139h-2.149a1.5 1.5 0 0 0 -1.5 1.5v5.452a1.5 1.5 0 0 0 1.5 1.5h2.149a13.37 13.37 0 0 0 .916 2.139l-1.541 1.541a1.5 1.5 0 0 0 0 2.121l3.855 3.855a1.5 1.5 0 0 0 2.122 0l1.683-1.683a13.489 13.489 0 0 0 2 .761v2.446a1.5 1.5 0 0 0 1.5 1.5h5.452a1.5 1.5 0 0 0 1.5-1.5v-2.732a13.438 13.438 0 0 0 1.706-.765l1.974 1.973a1.5 1.5 0 0 0 2.121 0l3.855-3.855a1.5 1.5 0 0 0 0-2.121l-2.12-2.112a13.259 13.259 0 0 0 .625-1.563h3.015a1.5 1.5 0 0 0 1.5-1.5v-5.457a1.5 1.5 0 0 0 -1.5-1.5zm-15.406 11.979a7.753 7.753 0 1 1 7.754-7.753 7.762 7.762 0 0 1 -7.754 7.753z" fill="url(#linear-gradient-2)"/><g fill="#fff"><path d="m12.126 7.292a1 1 0 0 1 .574-1.292 11.836 11.836 0 0 1 1.509-.467 1 1 0 0 1 .459 1.947 9.633 9.633 0 0 0 -1.25.387 1 1 0 0 1 -1.292-.575z"/><path d="m6.389 14.752a1 1 0 0 1 -.666-1.247 11.648 11.648 0 0 1 3.845-5.7 1 1 0 1 1 1.257 1.556 9.649 9.649 0 0 0 -3.188 4.719 1 1 0 0 1 -1.248.672z"/><path d="m48.814 33.032a11.672 11.672 0 0 0 -1.358-.563 1 1 0 0 1 .648-1.893 13.61 13.61 0 0 1 1.591.661 1 1 0 1 1 -.881 1.795z"/><path d="m35.456 33.729a1 1 0 0 1 .243-1.394 13.7 13.7 0 0 1 7.926-2.5 1 1 0 0 1 0 2 11.714 11.714 0 0 0 -6.775 2.14 1 1 0 0 1 -1.394-.246z"/></g></g></svg>