<svg height="512" viewBox="0 0 64 64" width="512" xmlns="http://www.w3.org/2000/svg" xmlns:xlink="http://www.w3.org/1999/xlink"><radialGradient id="radial-gradient" cx="31.928" cy="32" gradientUnits="userSpaceOnUse" r="30.241"><stop offset="0" stop-color="#f3f7ff"/><stop offset="1" stop-color="#cdd9ff"/></radialGradient><radialGradient id="radial-gradient-2" cx="7.711" cy="24.554" gradientUnits="userSpaceOnUse" r="6.494"><stop offset="0" stop-color="#00c6ff"/><stop offset="1" stop-color="#0072ff"/></radialGradient><radialGradient id="radial-gradient-3" cx="48.063" cy="12.343" r="6.977" xlink:href="#radial-gradient-2"/><g id="Atom"><path d="m51.528 32c6.668-5.906 10.7-12 8.386-16-.744-1.285-2.484-2.839-6.552-2.94a1.5 1.5 0 0 0 -1.542 1.59 2.512 2.512 0 0 1 -4.954.723 1.508 1.508 0 0 0 -1.858-1.128c-1.04.275-2.114.6-3.212.96-1.805-8.69-5.096-15.205-9.721-15.205s-7.921 6.526-9.725 15.229c-8.471-2.8-15.794-3.224-18.112.77-1.156 1.988-.807 4.573 1.036 7.683a1.511 1.511 0 0 0 2.191.445 2.509 2.509 0 0 1 3.182 3.867 1.5 1.5 0 0 0 -.032 2.172c.632.617 1.3 1.234 1.991 1.848-6.658 5.902-10.682 11.995-8.368 15.986 2.857 4.92 12.694 2.555 18.112.767 1.803 8.705 5.093 15.233 9.725 15.233s7.925-6.528 9.725-15.232c5.423 1.789 15.256 4.152 18.113-.768 2.315-3.995-1.713-10.094-8.385-16zm-7.036-14.495a5.536 5.536 0 0 0 10.183-1.329 3.519 3.519 0 0 1 2.625 1.324c1.147 1.978-1.59 6.874-8.074 12.556-1.884-1.526-3.92-3.02-6.042-4.444-.178-2.539-.46-5.038-.844-7.423.731-.246 1.45-.478 2.152-.684zm-12.417 23.931c-2.74-1.4-5.515-2.987-8.207-4.723-.155-3.12-.155-6.31 0-9.432a94.49 94.49 0 0 1 8.212-4.713c2.786 1.423 5.566 3.02 8.2 4.713.153 3.076.158 6.27 0 9.438-2.63 1.69-5.412 3.29-8.205 4.717zm7.942-1.013q-.215 2.291-.532 4.355-1.954-.761-4.058-1.72c1.536-.825 2.824-1.552 4.59-2.635zm-11.293 2.635q-2.1.961-4.058 1.72-.315-2.059-.532-4.349c1.751 1.071 3.106 1.832 4.59 2.629zm-7.946-8.438q-1.837-1.3-3.512-2.63 1.634-1.3 3.513-2.628c-.054 1.859-.053 3.438-.001 5.258zm3.356-11.043q.213-2.291.532-4.355 1.951.759 4.051 1.718c-1.696.913-3.117 1.738-4.583 2.637zm11.313-2.627q2.049-.936 4.04-1.713.313 2.057.53 4.34c-1.617-.99-2.992-1.777-4.57-2.627zm7.925 8.412q1.887 1.331 3.528 2.638-1.638 1.3-3.525 2.638c.049-1.797.051-3.387-.003-5.276zm-11.297-26.362c2.292 0 5.18 4.8 6.881 13.219-2.242.855-4.557 1.863-6.889 3-2.3-1.116-4.611-2.122-6.877-2.982 1.701-8.43 4.592-13.237 6.885-13.237zm-18.375 25.952a5.52 5.52 0 0 0 -6.483-8.032c-.674-1.476-.809-2.666-.37-3.419 1.148-1.978 6.776-2.067 14.962.682-.385 2.387-.668 4.888-.845 7.429-2.12 1.421-4.152 2.914-6.034 4.438-.419-.367-.83-.733-1.23-1.098zm-6.853 17.548c-1.147-1.976 1.584-6.864 8.053-12.539 1.867 1.513 3.9 3 6.064 4.446.178 2.535.46 5.029.844 7.41-8.184 2.749-13.808 2.66-14.961.683zm25.228 14.5c-2.293 0-5.184-4.807-6.885-13.239 2.269-.861 4.586-1.87 6.885-2.987 2.3 1.117 4.616 2.126 6.885 2.987-1.701 8.432-4.591 13.239-6.885 13.239zm25.225-14.5c-1.148 1.978-6.777 2.067-14.962-.682.385-2.387.667-4.888.845-7.429 2.122-1.424 4.158-2.918 6.042-4.444 6.487 5.68 9.223 10.575 8.075 12.555z" fill="url(#radial-gradient)"/><circle cx="9.071" cy="26.145" fill="url(#radial-gradient-2)" r="5.5"/><path d="m5.741 25.638a1 1 0 0 1 -.462-1.338 4.192 4.192 0 0 1 3.793-2.373 1 1 0 0 1 0 2 2.2 2.2 0 0 0 -1.994 1.249 1 1 0 0 1 -1.337.462z" fill="#fff"/><circle cx="49.24" cy="14.835" fill="url(#radial-gradient-3)" r="5.5"/><path d="m45.9 14.062a1 1 0 0 1 -.36-1.362 4.289 4.289 0 0 1 3.7-2.136 1 1 0 0 1 0 2 2.284 2.284 0 0 0 -1.969 1.136 1 1 0 0 1 -1.371.362z" fill="#fff"/></g></svg>