<svg height="512" viewBox="0 0 64 64" width="512" xmlns="http://www.w3.org/2000/svg" xmlns:xlink="http://www.w3.org/1999/xlink"><linearGradient id="linear-gradient" gradientUnits="userSpaceOnUse" x1="18.777" x2="18.602" y1=".686" y2="8.637"><stop offset="0" stop-color="#f3f7ff"/><stop offset="1" stop-color="#cdd9ff"/></linearGradient><linearGradient id="linear-gradient-2" x1="45.989" x2="45.989" xlink:href="#linear-gradient" y1="-8.104" y2="7.442"/><linearGradient id="linear-gradient-3" x1="44.198" x2="44.198" xlink:href="#linear-gradient" y1="1.333" y2="8.149"/><linearGradient id="linear-gradient-4" x1="32.561" x2="33.26" xlink:href="#linear-gradient" y1="6.878" y2="16.751"/><radialGradient id="radial-gradient" cx="59.387" cy="2.95" gradientUnits="userSpaceOnUse" r="8.573"><stop offset="0" stop-color="#00c6ff"/><stop offset="1" stop-color="#0072ff"/></radialGradient><radialGradient id="radial-gradient-2" cx="36.363" cy="55.333" r="8.214" xlink:href="#radial-gradient"/><radialGradient id="radial-gradient-3" cx="4.848" cy="35.207" r="8.57" xlink:href="#radial-gradient"/><radialGradient id="radial-gradient-4" cx="52.921" cy="46.552" r="5.568" xlink:href="#radial-gradient"/><radialGradient id="radial-gradient-5" cx="6.829" cy="5.44" r="7.175" xlink:href="#radial-gradient"/><linearGradient id="linear-gradient-5" x1="19.988" x2="19.988" xlink:href="#linear-gradient" y1="-5.307" y2="-.569"/><radialGradient id="radial-gradient-6" cx="31.295" cy="29.44" r="11.421" xlink:href="#radial-gradient"/><g id="Atom-2" data-name="Atom"><path d="m8.93 37.121a1.5 1.5 0 0 1 1.139-1.789l15.253-3.379a1.5 1.5 0 1 1 .649 2.928l-15.252 3.379a1.5 1.5 0 0 1 -1.789-1.139z" fill="url(#linear-gradient)"/><path d="m35.513 28.487a1.5 1.5 0 0 1 0-2.12l18.83-18.879a1.5 1.5 0 0 1 2.124 2.118l-18.833 18.879a1.5 1.5 0 0 1 -2.121.002z" fill="url(#linear-gradient-2)"/><path d="m50.265 47.416-13.922-10.316a1.5 1.5 0 0 1 1.787-2.409l13.922 10.32a1.5 1.5 0 1 1 -1.787 2.409z" fill="url(#linear-gradient-3)"/><path d="m35.687 53.974-3.633-15.263a1.5 1.5 0 0 1 2.918-.694l3.634 15.262a1.5 1.5 0 0 1 -2.919.695z" fill="url(#linear-gradient-4)"/><path d="m58.357 11.283a5.642 5.642 0 1 1 5.643-5.641 5.648 5.648 0 0 1 -5.643 5.641z" fill="url(#radial-gradient)"/><path d="m55.3 3.636a1 1 0 0 1 .114-1.41 4.155 4.155 0 0 1 2.689-.99 1 1 0 0 1 0 2 2.149 2.149 0 0 0 -1.394.514 1 1 0 0 1 -1.409-.114z" fill="#fff"/><path d="m38.188 64a6 6 0 1 1 6-6 6.006 6.006 0 0 1 -6 6z" fill="url(#radial-gradient-2)"/><path d="m35.312 55.022a1 1 0 0 1 .364-1.366 5.01 5.01 0 0 1 2.512-.675 1 1 0 0 1 0 2 3.012 3.012 0 0 0 -1.509.405 1 1 0 0 1 -1.367-.364z" fill="#fff"/><path d="m6 43.768a6 6 0 1 1 6-6 6.006 6.006 0 0 1 -6 6z" fill="url(#radial-gradient-3)"/><path d="m2.994 35.333a1 1 0 0 1 .22-1.4 4.707 4.707 0 0 1 2.786-.903 1 1 0 0 1 0 2 2.719 2.719 0 0 0 -1.609.523 1 1 0 0 1 -1.397-.22z" fill="#fff"/><path d="m53.567 52.5a4.5 4.5 0 1 1 4.5-4.5 4.5 4.5 0 0 1 -4.5 4.5z" fill="url(#radial-gradient-4)"/><path d="m51.458 49a1 1 0 0 1 -1-1 3.109 3.109 0 0 1 3.108-3.108 1 1 0 0 1 0 2 1.109 1.109 0 0 0 -1.108 1.108 1 1 0 0 1 -1 1z" fill="#fff"/><path d="m10.433 14.947a4.5 4.5 0 1 1 4.5-4.5 4.5 4.5 0 0 1 -4.5 4.5z" fill="url(#radial-gradient-5)"/><path d="m8.571 8.609a1 1 0 0 1 .529-1.309 3.408 3.408 0 0 1 1.331-.269 1 1 0 1 1 0 2 1.407 1.407 0 0 0 -.552.111 1 1 0 0 1 -1.308-.533z" fill="#fff"/><path d="m26.362 28.492-14.868-14.863a1.5 1.5 0 0 1 2.121-2.12l14.868 14.863a1.5 1.5 0 1 1 -2.121 2.12z" fill="url(#linear-gradient-5)"/><path d="m32 40.042a8 8 0 1 1 8-8 8.008 8.008 0 0 1 -8 8z" fill="url(#radial-gradient-6)"/><path d="m26.43 33.044a1 1 0 0 1 -1-1 6.582 6.582 0 0 1 2.17-4.876 1 1 0 0 1 1.34 1.485 4.575 4.575 0 0 0 -1.511 3.391 1 1 0 0 1 -.999 1zm3.911-6.409a1 1 0 0 1 .872-1.113 6.6 6.6 0 0 1 .787-.047 1 1 0 0 1 0 2 4.46 4.46 0 0 0 -.546.033 1 1 0 0 1 -1.113-.873z" fill="#fff"/></g></svg>